# xmcd
#
# Track frame offsets:
#	225
#	11831
#	25402
#	43556
#	57430
#	72137
#	81851
#	96109
#	112511
#	124133
#	138383
#	150494
#	163057
#	171539
#	183789
#	198684
#	212526
#	225679
#	239887
#	249665
#	263258
#
# Disc length: 3642 seconds
#
# Revision: 0
# Processed by: cddbd v1.4PL0 Copyright (c) Steve Scherf et al.
# Submitted via: dBpowerAMP V4.0
#
DISCID=210e3715
DTITLE=Tommy Hunter - Timeless Country Treasures Volume 2
DYEAR=1900
DGENRE=
TTITLE0=Sixteen Tons
TTITLE1=It's Four In The Morning
TTITLE2=For The Good Times
TTITLE3=Mary In The Morning
TTITLE4=Welcome To My World
TTITLE5=I'll Sail My Ship Alone
TTITLE6=I'm So Lonesome I Could Cry
TTITLE7=Silver Haired Daddy
TTITLE8=Great Speckled Bird
TTITLE9=Gene Autry My Hero
TTITLE10=The Keys In The Mailbox
TTITLE11=Green Green Grass Of Home
TTITLE12=Bill Jones General Store
TTITLE13=No One Will Ever Know
TTITLE14=Funny How Time Slips Away
TTITLE15=Crystal Chandeliers
TTITLE16=Noboby's Darlin'
TTITLE17=I Overlooked An Orchid
TTITLE18=King Of The Road
TTITLE19=The Hand That Rocks The Cradle
TTITLE20=Travelin' Man
EXTD=
EXTT0=
EXTT1=
EXTT2=
EXTT3=
EXTT4=
EXTT5=
EXTT6=
EXTT7=
EXTT8=
EXTT9=
EXTT10=
EXTT11=
EXTT12=
EXTT13=
EXTT14=
EXTT15=
EXTT16=
EXTT17=
EXTT18=
EXTT19=
EXTT20=
PLAYORDER=
